<svg width="20" height="20" viewBox="0 0 20 20" fill="none" xmlns="http://www.w3.org/2000/svg">
    <path
        d="M9.99977 19.2307L9.07669 16.4621H2.61519C2.10751 16.4621 1.6729 16.2814 1.31137 15.9199C0.949818 15.5585 0.769043 15.124 0.769043 14.6164V2.6191C0.769043 2.11153 0.949818 1.67634 1.31137 1.31352C1.6729 0.950689 2.10751 0.769272 2.61519 0.769272H8.15362L8.96132 3.5379H17.3843C17.9228 3.5379 18.3651 3.71093 18.7112 4.057C19.0574 4.40308 19.2305 4.84529 19.2305 5.38362V17.3809C19.2305 17.8885 19.0574 18.3237 18.7112 18.6865C18.3651 19.0493 17.9228 19.2307 17.3843 19.2307H9.99977ZM5.52904 12.398C6.59288 12.398 7.46518 12.0557 8.14594 11.3711C8.82671 10.6865 9.16709 9.79807 9.16709 8.70577C9.16709 8.56602 9.16453 8.4484 9.15939 8.3529C9.15426 8.25738 9.13627 8.16091 9.10542 8.06347H5.44979V9.48847H7.51132C7.3844 9.92307 7.14947 10.2599 6.80652 10.499C6.46357 10.7381 6.04562 10.8577 5.55267 10.8577C4.95188 10.8577 4.43583 10.6404 4.00449 10.2058C3.57316 9.77116 3.35749 9.24103 3.35749 8.6154C3.35749 7.98976 3.57256 7.45964 4.00269 7.02502C4.43283 6.5904 4.94745 6.3731 5.54657 6.3731C5.82309 6.3731 6.08345 6.42245 6.32767 6.52117C6.5719 6.61989 6.79594 6.77117 6.99979 6.97502L8.12862 5.89617C7.80427 5.56155 7.41529 5.30066 6.96169 5.1135C6.50808 4.92631 6.02756 4.83272 5.52014 4.83272C4.48991 4.83272 3.60942 5.1997 2.87867 5.93367C2.1479 6.66764 1.78252 7.56155 1.78252 8.6154C1.78252 9.66923 2.14868 10.5631 2.88102 11.2971C3.61337 12.0311 4.49604 12.398 5.52904 12.398ZM11.7055 12.8596L12.2171 12.373C12.003 12.1089 11.8049 11.8548 11.6228 11.6106C11.4408 11.3663 11.2677 11.107 11.1036 10.8327L11.7055 12.8596ZM12.8594 11.6807C13.2914 11.174 13.6193 10.6902 13.843 10.2295C14.0667 9.76882 14.2171 9.40642 14.294 9.14232H10.6267L10.9017 10.1144H11.8183C11.9406 10.3458 12.0867 10.5957 12.2567 10.8641C12.4267 11.1325 12.6276 11.4047 12.8594 11.6807ZM10.9228 18.3076H17.3843C17.6613 18.3076 17.8843 18.2192 18.0536 18.0423C18.2228 17.8655 18.3074 17.6463 18.3074 17.3848V5.38837C18.3074 5.11152 18.2228 4.88785 18.0537 4.71735C17.8845 4.54683 17.6615 4.46157 17.3847 4.46157H9.24209L10.3251 8.20385H12.1454V7.23362H13.0901V8.20385H16.4613V9.14232H15.2827C15.1287 9.72436 14.8994 10.2929 14.5949 10.8481C14.2904 11.4032 13.9292 11.9198 13.5113 12.398L16.0247 14.8711L15.3574 15.5384L12.8594 13.05L12.0267 13.898L12.769 16.4615L10.9228 18.3076Z" />
</svg>