<svg width="512" height="480" viewBox="0 0 512 480" fill="none" xmlns="http://www.w3.org/2000/svg">
    <g clip-path="url(#clip0_955_2)">
        <path
            d="M440 0H72C61.3952 0.0127029 51.2285 4.23106 43.7298 11.7298C36.2311 19.2285 32.0127 29.3952 32 40V392C32 394.122 32.8429 396.157 34.3431 397.657C35.8434 399.157 37.8783 400 40 400H72C74.1217 400 76.1566 399.157 77.6569 397.657C79.1571 396.157 80 394.122 80 392V48H432V392C432 394.122 432.843 396.157 434.343 397.657C435.843 399.157 437.878 400 440 400H472C474.122 400 476.157 399.157 477.657 397.657C479.157 396.157 480 394.122 480 392V40C479.987 29.3952 475.769 19.2285 468.27 11.7298C460.772 4.23106 450.605 0.0127029 440 0Z"
            fill="#F9E0DC" />
        <path
            d="M446.624 427.512C445.891 426.43 444.904 425.544 443.749 424.932C442.594 424.32 441.307 424 440 424H72C70.6917 423.999 69.4031 424.319 68.2472 424.932C67.0912 425.544 66.1031 426.431 65.3696 427.515C64.6361 428.598 64.1794 429.845 64.0397 431.145C63.8999 432.446 64.0813 433.762 64.568 434.976L80.568 474.976C81.1629 476.46 82.1889 477.732 83.5136 478.628C84.8383 479.523 86.401 480.001 88 480H424C425.599 480.001 427.162 479.523 428.486 478.628C429.811 477.732 430.837 476.46 431.432 474.976L447.432 434.976C447.918 433.761 448.099 432.445 447.958 431.143C447.817 429.842 447.359 428.595 446.624 427.512Z"
            fill="#86D1EF" />
        <path
            d="M448 40V400H64V40C64 37.8783 64.8429 35.8434 66.3431 34.3431C67.8434 32.8429 69.8783 32 72 32H440C442.122 32 444.157 32.8429 445.657 34.3431C447.157 35.8434 448 37.8783 448 40Z"
            fill="#D4EFFC" />
        <path
            d="M448 40C448 37.8783 447.157 35.8434 445.657 34.3431C444.157 32.8429 442.122 32 440 32H438.456L277.032 96.568C275.546 97.1616 274.273 98.187 273.376 99.5119C272.479 100.837 271.999 102.4 272 104V328C271.999 329.6 272.479 331.163 273.376 332.488C274.273 333.813 275.546 334.838 277.032 335.432L438.456 400H448V40Z"
            fill="#F2CAC1" />
        <path
            d="M412.488 80.64C411.405 79.9076 410.159 79.4517 408.86 79.3123C407.56 79.1728 406.246 79.354 405.032 79.84L309.032 118.24C307.546 118.834 306.273 119.859 305.376 121.184C304.479 122.509 303.999 124.072 304 125.672V306.336C303.999 307.936 304.479 309.499 305.376 310.824C306.273 312.149 307.546 313.174 309.032 313.768L405.032 352.168C405.977 352.542 406.984 352.735 408 352.736C410.122 352.736 412.157 351.893 413.657 350.393C415.157 348.893 416 346.858 416 344.736V87.264C416 85.957 415.68 84.6698 415.068 83.5151C414.456 82.3603 413.57 81.3732 412.488 80.64Z"
            fill="#DBAAA2" />
        <path d="M416 208H368V94.648L352 101.048V208H304V224H352V330.952L368 337.352V224H416V208Z" fill="#BC8079" />
        <path
            d="M240 328V104C240.001 102.4 239.521 100.837 238.624 99.5119C237.727 98.187 236.454 97.1616 234.968 96.568L73.544 32H72C69.8783 32 67.8434 32.8429 66.3431 34.3431C64.8429 35.8434 64 37.8783 64 40V400H73.544L234.968 335.432C236.454 334.838 237.727 333.813 238.624 332.488C239.521 331.163 240.001 329.6 240 328Z"
            fill="#F2CAC1" />
        <path
            d="M504 384H8C3.58172 384 0 387.582 0 392V432C0 436.418 3.58172 440 8 440H504C508.418 440 512 436.418 512 432V392C512 387.582 508.418 384 504 384Z"
            fill="#ADE1FA" />
        <path
            d="M99.512 80.64C100.595 79.9076 101.841 79.4517 103.14 79.3123C104.44 79.1728 105.754 79.354 106.968 79.84L202.968 118.24C204.454 118.834 205.727 119.859 206.624 121.184C207.521 122.509 208.001 124.072 208 125.672V306.336C208.001 307.936 207.521 309.499 206.624 310.824C205.727 312.149 204.454 313.174 202.968 313.768L106.968 352.168C106.023 352.542 105.016 352.735 104 352.736C101.878 352.736 99.8434 351.893 98.3431 350.393C96.8429 348.893 96 346.858 96 344.736V87.264C95.9998 85.957 96.3198 84.6698 96.932 83.5151C97.5442 82.3603 98.43 81.3732 99.512 80.64Z"
            fill="#DBAAA2" />
        <path d="M96 208H144V94.648L160 101.048V208H208V224H160V330.952L144 337.352V224H96V208Z" fill="#BC8079" />
    </g>
    <defs>
        <clipPath id="clip0_955_2">
            <rect width="512" height="480" fill="white" />
        </clipPath>
    </defs>
</svg>