<svg width="477" height="452" viewBox="0 0 477 452" fill="currentColor" xmlns="http://www.w3.org/2000/svg">
	<g clip-path="url(#clip0_936_24)">
		<path
			d="M196.619 284.266H128.719C122.919 284.266 118.319 288.966 118.319 294.666V346.866C118.319 352.666 123.019 357.266 128.719 357.266H196.619C202.419 357.266 207.019 352.566 207.019 346.866V294.666C207.019 288.866 202.319 284.266 196.619 284.266ZM186.019 339.766H139.019V303.166H186.019V339.766Z" />
		<path
			d="M472.819 197.566L247.219 3.66594C243.419 0.0659423 237.419 0.0659423 233.619 3.66594L3.71901 197.466C0.41901 200.266 -0.88099 204.866 0.61901 208.966C2.11901 213.166 6.01901 216.066 10.519 216.266H55.419V410.666C55.719 433.466 74.419 451.666 97.219 451.466H379.819C402.319 451.766 420.819 433.766 421.119 411.266C421.119 411.066 421.119 410.866 421.119 410.766V216.366H466.019C470.519 216.166 474.419 213.266 475.919 209.066C477.219 204.966 476.019 200.466 472.819 197.566ZM348.019 430.566H264.419V316.666C264.419 307.766 269.119 299.966 278.019 299.966H330.819C340.019 300.266 347.519 307.466 348.019 316.666V430.566ZM400.319 410.666C400.319 421.666 391.419 430.566 380.519 430.566C380.319 430.566 380.119 430.566 380.019 430.566H369.019V316.666C368.419 295.966 351.619 279.366 330.919 279.066H278.119C257.719 279.066 243.619 296.266 243.619 316.666V430.566H97.219C86.319 431.166 76.919 422.766 76.319 411.766C76.319 411.366 76.319 411.066 76.319 410.666V216.366H400.319V410.666ZM39.219 195.466L240.419 25.6659L437.919 195.466H39.219Z" />
	</g>
	<defs>
		<clipPath id="clip0_936_24">
			<rect width="477" height="452" fill="white" />
		</clipPath>
	</defs>
</svg>