<svg width="150" height="150" viewBox="0 0 150 150" fill="none" xmlns="http://www.w3.org/2000/svg">
    <path
        d="M72 51L67.7574 46.7574C66.6321 45.6321 65.106 45 63.5147 45H36C34.3431 45 33 46.3431 33 48V104C33 104.552 33.4477 105 34 105H116C116.552 105 117 104.552 117 104V54C117 52.3431 115.657 51 114 51H72Z"
        fill="#FFB900" />
    <path
        d="M72 51L67.7574 55.2426C66.6321 56.3679 65.106 57 63.5147 57H33V104C33 104.552 33.4477 105 34 105H116C116.552 105 117 104.552 117 104V54C117 52.3431 115.657 51 114 51H72Z"
        fill="#FFD75E" />
    <path
        d="M72 51L67.7574 55.2426C66.6321 56.3679 65.106 57 63.5147 57H33V104C33 104.552 33.4477 105 34 105H116C116.552 105 117 104.552 117 104V54C117 52.3431 115.657 51 114 51H72Z"
        fill="url(#paint0_linear_948_23)" />
    <path opacity="0.4"
        d="M33 57V58H63.6005C65.457 58 67.2375 57.2625 68.5502 55.9497L73.5 51H72L67.7574 55.2426C66.6321 56.3679 65.106 57 63.5147 57H33Z"
        fill="white" />
    <path d="M116 105H34C33.4477 105 33 104.552 33 104H117C117 104.552 116.552 105 116 105Z" fill="#DA7B16" />
    <defs>
        <linearGradient id="paint0_linear_948_23" x1="75" y1="51" x2="75" y2="105" gradientUnits="userSpaceOnUse">
            <stop stop-color="white" stop-opacity="0" />
            <stop offset="1" stop-color="#FFD75E" stop-opacity="0.3" />
        </linearGradient>
    </defs>
</svg>