<svg width="512" height="468" viewBox="0 0 512 468" fill="currentColor" xmlns="http://www.w3.org/2000/svg">
    <path
        d="M212.364 361.658L261.12 253.323L201.076 184.203L232.727 75.403C232.869 74.361 232.869 73.304 232.727 72.261C232.663 68.619 230.898 65.217 227.956 63.068C201.282 38.797 166.73 24.993 130.676 24.203C58.506 24.204 0 82.709 0 154.88C0.076 160.131 0.426 165.374 1.047 170.589C14.429 288.698 171.636 438.225 212.829 463.011C217.014 467.888 224.361 468.448 229.238 464.263C232.801 461.205 234.177 456.306 232.728 451.84L212.364 361.658ZM24.204 168.145V166.632C24.204 164.421 23.506 159.068 23.506 154.996C23.506 95.75 71.432 47.668 130.677 47.476C158.907 47.851 186.133 58.009 207.71 76.218L174.546 187.113L232.728 256.931L186.183 361.658L202.241 426.589C147.898 381.207 34.909 260.422 24.204 168.145Z" />
    <path
        d="M381.324 0.93103C345.302 1.66803 310.757 15.387 284.044 39.564C282.05 41.044 280.582 43.124 279.855 45.499L244.364 163.84L302.546 233.658L256 338.385L279.273 434.036C280.789 440.281 287.081 444.115 293.326 442.599C295.354 442.107 297.212 441.078 298.706 439.621C339.899 415.185 497.106 265.076 510.488 147.199C511.261 142.031 511.766 136.827 512.001 131.606C512 59.437 453.494 0.93103 381.324 0.93103ZM488.029 143.36V144.756C476.393 244.014 346.414 376.32 298.705 412.392L282.181 338.385L330.937 230.05L270.893 160.93L301.031 56.203C322.955 36.036 351.536 24.645 381.322 24.203C440.613 24.267 488.661 72.316 488.726 131.607C488.727 135.796 488.727 140.567 488.029 143.36Z" />
</svg>