<svg width="1000" height="1000" viewBox="0 0 1000 1000" fill="none" xmlns="http://www.w3.org/2000/svg">
    <path
        d="M456.364 627.658L505.12 519.323L445.076 450.203L476.727 341.403C476.869 340.361 476.869 339.304 476.727 338.261C476.663 334.619 474.898 331.217 471.956 329.068C445.282 304.797 410.73 290.993 374.676 290.203C302.506 290.204 244 348.709 244 420.88C244.076 426.131 244.426 431.374 245.047 436.589C258.429 554.698 415.636 704.225 456.829 729.011C461.014 733.888 468.361 734.448 473.238 730.263C476.801 727.205 478.177 722.306 476.728 717.84L456.364 627.658ZM268.204 434.145V432.632C268.204 430.421 267.506 425.068 267.506 420.996C267.506 361.75 315.432 313.668 374.677 313.476C402.907 313.851 430.133 324.009 451.71 342.218L418.546 453.113L476.728 522.931L430.183 627.658L446.241 692.589C391.898 647.207 278.909 526.422 268.204 434.145Z"
        fill="white" />
    <path
        d="M625.324 266.931C589.302 267.668 554.757 281.387 528.044 305.564C526.05 307.044 524.582 309.124 523.855 311.499L488.364 429.84L546.546 499.658L500 604.385L523.273 700.036C524.789 706.281 531.081 710.115 537.326 708.599C539.354 708.107 541.212 707.078 542.706 705.621C583.899 681.185 741.106 531.076 754.488 413.199C755.261 408.031 755.766 402.827 756.001 397.606C756 325.437 697.494 266.931 625.324 266.931ZM732.029 409.36V410.756C720.393 510.014 590.414 642.32 542.705 678.392L526.181 604.385L574.937 496.05L514.893 426.93L545.031 322.203C566.955 302.036 595.536 290.645 625.322 290.203C684.613 290.267 732.661 338.316 732.726 397.607C732.727 401.796 732.727 406.567 732.029 409.36Z"
        fill="white" />
</svg>