<svg width="375" height="375" viewBox="0 0 375 375" fill="currentColor" xmlns="http://www.w3.org/2000/svg">
    <g clip-path="url(#clip0_922_53)">
        <path
            d="M187.037 72.62C123.847 72.62 72.621 123.846 72.621 187.036C72.621 250.226 123.847 301.452 187.037 301.452C250.227 301.452 301.453 250.226 301.453 187.036C301.453 123.846 250.227 72.62 187.037 72.62ZM187.037 280.555V93.518C238.686 93.518 280.555 135.388 280.555 187.036C280.555 238.685 238.685 280.555 187.037 280.555Z"
            fill="currentColor" />
        <path
            d="M278.988 95.086C280.917 97.055 283.546 98.181 286.302 98.221C289.058 98.182 291.687 97.055 293.616 95.086L319.216 69.486C323.833 66.023 324.768 59.474 321.306 54.857C317.844 50.24 311.294 49.305 306.677 52.767C305.885 53.361 305.181 54.065 304.587 54.857L278.987 80.457C274.947 84.163 274.677 90.443 278.384 94.482C278.577 94.692 278.778 94.893 278.988 95.086Z"
            fill="currentColor" />
        <path
            d="M92.996 278.988C89.281 276.202 84.172 276.202 80.457 278.988L54.857 304.588C50.817 308.294 50.547 314.574 54.254 318.613C54.446 318.823 54.648 319.024 54.857 319.216C58.563 323.256 64.843 323.526 68.882 319.819C69.092 319.627 69.293 319.425 69.485 319.216L95.085 293.616C98.548 289 97.613 282.45 92.996 278.988Z"
            fill="currentColor" />
        <path
            d="M319.216 304.588L293.616 278.988C288.999 275.525 282.45 276.461 278.987 281.078C276.201 284.793 276.201 289.902 278.987 293.617L304.587 319.217C308.293 323.257 314.573 323.527 318.612 319.82C318.822 319.628 319.023 319.426 319.215 319.217C323.255 315.511 323.525 309.231 319.818 305.192C319.627 304.981 319.426 304.78 319.216 304.588Z"
            fill="currentColor" />
        <path
            d="M80.457 95.086C84.163 99.126 90.443 99.396 94.482 95.689C94.692 95.497 94.893 95.295 95.085 95.086C99.125 91.38 99.395 85.1 95.688 81.061C95.496 80.851 95.294 80.65 95.085 80.458L69.485 54.858C64.868 51.395 58.319 52.331 54.856 56.948C52.07 60.663 52.07 65.772 54.856 69.487L80.457 95.086Z"
            fill="currentColor" />
        <path
            d="M187.037 56.947C192.808 56.947 197.486 52.269 197.486 46.498V10.449C197.486 4.678 192.808 0 187.037 0C181.266 0 176.588 4.678 176.588 10.449V46.498C176.588 52.269 181.266 56.947 187.037 56.947Z"
            fill="currentColor" />
        <path
            d="M187.037 317.127C181.266 317.127 176.588 321.805 176.588 327.576V363.625C176.588 369.396 181.266 374.074 187.037 374.074C192.808 374.074 197.486 369.396 197.486 363.625V327.576C197.486 321.805 192.808 317.127 187.037 317.127Z"
            fill="currentColor" />
        <path
            d="M363.625 176.588H327.576C321.805 176.588 317.127 181.266 317.127 187.037C317.127 192.808 321.805 197.486 327.576 197.486H363.625C369.396 197.486 374.074 192.808 374.074 187.037C374.074 181.266 369.395 176.588 363.625 176.588Z"
            fill="currentColor" />
        <path
            d="M56.947 187.037C56.947 181.266 52.269 176.588 46.498 176.588H10.449C4.678 176.588 0 181.266 0 187.037C0 192.808 4.678 197.486 10.449 197.486H46.498C52.269 197.486 56.947 192.808 56.947 187.037Z"
            fill="currentColor" />
    </g>
    <defs>
        <clipPath id="clip0_922_53">
            <rect width="375" height="375" fill="white" />
        </clipPath>
    </defs>
</svg>